ffmpeg started on 2016-12-02 at 19:37:41
Report written to "Output/x264/results/ffmpeg/old_town_cross_2160p50veryslow9000k.log"
Command line:
Tools/ffmpeg/ffmpeg -benchmark -y -i Input/y4m/old_town_cross_2160p50.y4m -c:v libx264 -preset veryslow -b:v 9000k -an Output/x264/encoded/old_town_cross_2160p50veryslow9000k.mkv
ffmpeg version N-82227-gdb23fde Copyright (c) 2000-2016 the FFmpeg developers
  built with gcc 5.4.0 (Ubuntu 5.4.0-6ubuntu1~16.04.2) 20160609
  configuration: --prefix=/home/jaroslav/ffmpeg_build --pkg-config-flags=--static --extra-cflags=-I/home/jaroslav/ffmpeg_build/include --extra-ldflags=-L/home/jaroslav/ffmpeg_build/lib --bindir=/home/jaroslav/bin --enable-gpl --enable-libass --enable-libfdk-aac --enable-libfreetype --enable-libmp3lame --enable-libopus --enable-libtheora --enable-libvorbis --enable-libvpx --enable-libx264 --enable-libx265 --enable-nvenc --enable-libmfx --enable-libxvid --enable-libgsm --enable-libopencore-amrnb --enable-version3 --enable-nonfree
  libavutil      55. 35.100 / 55. 35.100
  libavcodec     57. 66.101 / 57. 66.101
  libavformat    57. 57.100 / 57. 57.100
  libavdevice    57.  2.100 / 57.  2.100
  libavfilter     6. 66.100 /  6. 66.100
  libswscale      4.  3.100 /  4.  3.100
  libswresample   2.  4.100 /  2.  4.100
  libpostproc    54.  2.100 / 54.  2.100
Input #0, yuv4mpegpipe, from 'Input/y4m/old_town_cross_2160p50.y4m':
  Duration: 00:00:10.00, start: 0.000000, bitrate: 4976642 kb/s
    Stream #0:0: Video: rawvideo (I420 / 0x30323449), yuv420p(progressive), 3840x2160, SAR 1:1 DAR 16:9, 50 fps, 50 tbr, 50 tbn, 50 tbc
[libx264 @ 0x4276120] using SAR=1/1
[libx264 @ 0x4276120] DPB size (16 frames, 518400 mbs) > level limit (5 frames, 184320 mbs)
[libx264 @ 0x4276120] using cpu capabilities: MMX2 SSE2Fast SSSE3 SSE4.2 AVX FMA3 AVX2 LZCNT BMI2
[libx264 @ 0x4276120] profile High, level 5.2
[libx264 @ 0x4276120] 264 - core 148 - H.264/MPEG-4 AVC codec - Copyleft 2003-2016 - http://www.videolan.org/x264.html - options: cabac=1 ref=16 deblock=1:0:0 analyse=0x3:0x133 me=umh subme=10 psy=1 psy_rd=1.00:0.00 mixed_ref=1 me_range=24 chroma_me=1 trellis=2 8x8dct=1 cqm=0 deadzone=21,11 fast_pskip=1 chroma_qp_offset=-2 threads=6 lookahead_threads=1 sliced_threads=0 nr=0 decimate=1 interlaced=0 bluray_compat=0 constrained_intra=0 bframes=8 b_pyramid=2 b_adapt=2 b_bias=0 direct=3 weightb=1 open_gop=0 weightp=2 keyint=250 keyint_min=25 scenecut=40 intra_refresh=0 rc_lookahead=60 rc=abr mbtree=1 bitrate=9000 ratetol=1.0 qcomp=0.60 qpmin=0 qpmax=69 qpstep=4 ip_ratio=1.40 aq=1:1.00
Output #0, matroska, to 'Output/x264/encoded/old_town_cross_2160p50veryslow9000k.mkv':
  Metadata:
    encoder         : Lavf57.57.100
    Stream #0:0: Video: h264 (libx264) (H264 / 0x34363248), yuv420p, 3840x2160 [SAR 1:1 DAR 16:9], q=-1--1, 9000 kb/s, 50 fps, 1k tbn, 50 tbc
    Metadata:
      encoder         : Lavc57.66.101 libx264
    Side data:
      cpb: bitrate max/min/avg: 0/0/9000000 buffer size: 0 vbv_delay: -1
Stream mapping:
  Stream #0:0 -> #0:0 (rawvideo (native) -> h264 (libx264))
Press [q] to stop, [?] for help
frame=   60 fps=0.0 q=0.0 size=       0kB time=00:00:00.00 bitrate=N/A speed=   0x    frame=   72 fps=8.0 q=0.0 size=       0kB time=00:00:00.00 bitrate=N/A speed=   0x    frame=   77 fps=7.0 q=34.0 size=       1kB time=-00:00:00.01 bitrate=N/A speed=N/A    frame=   78 fps=6.8 q=34.0 size=       1kB time=00:00:00.00 bitrate=5888.0kbits/s speed=8.74e-05x    frame=   82 fps=6.8 q=38.0 size=       1kB time=00:00:00.08 bitrate=  72.7kbits/s speed=0.00675x    frame=   84 fps=6.4 q=36.0 size=       1kB time=00:00:00.12 bitrate=  48.7kbits/s speed=0.00928x    frame=   89 fps=6.5 q=42.0 size=       1kB time=00:00:00.22 bitrate=  26.6kbits/s speed=0.0161x    frame=   90 fps=6.3 q=42.0 size=       1kB time=00:00:00.24 bitrate=  24.4kbits/s speed=0.0169x    frame=   91 fps=6.1 q=42.0 size=       1kB time=00:00:00.26 bitrate=  22.6kbits/s speed=0.0175x    frame=   96 fps=6.2 q=42.0 size=       1kB time=00:00:00.36 bitrate=  16.3kbits/s speed=0.0233x    frame=   97 fps=6.0 q=42.0 size=       1kB time=00:00:00.38 bitrate=  15.5kbits/s speed=0.0235x    frame=  100 fps=5.6 q=40.0 size=       1kB time=00:00:00.44 bitrate=  13.4kbits/s speed=0.0248x    frame=  105 fps=5.5 q=40.0 size=       1kB time=00:00:00.54 bitrate=  10.9kbits/s speed=0.0282x    frame=  107 fps=5.4 q=37.0 size=       1kB time=00:00:00.58 bitrate=  10.1kbits/s speed=0.0292x    frame=  108 fps=5.3 q=38.0 size=       1kB time=00:00:00.60 bitrate=   9.8kbits/s speed=0.0294x    frame=  113 fps=5.0 q=38.0 size=       1kB time=00:00:00.70 bitrate=   8.4kbits/s speed=0.0309x    frame=  115 fps=4.9 q=37.0 size=       1kB time=00:00:00.74 bitrate=   7.9kbits/s speed=0.0318x    frame=  119 fps=4.8 q=37.0 size=       1kB time=00:00:00.82 bitrate=   7.2kbits/s speed=0.0334x    frame=  120 fps=4.8 q=37.0 size=       1kB time=00:00:00.84 bitrate=   7.0kbits/s speed=0.0334x    frame=  122 fps=4.6 q=37.0 size=       1kB time=00:00:00.88 bitrate=   6.7kbits/s speed=0.0329x    frame=  124 fps=4.5 q=36.0 size=       1kB time=00:00:00.92 bitrate=   6.4kbits/s speed=0.0334x    frame=  128 fps=4.4 q=36.0 size=       1kB time=00:00:01.00 bitrate=   5.9kbits/s speed=0.0343x    frame=  129 fps=4.3 q=36.0 size=       1kB time=00:00:01.02 bitrate=   5.8kbits/s speed=0.0342x    frame=  130 fps=4.2 q=36.0 size=       1kB time=00:00:01.04 bitrate=   5.7kbits/s speed=0.0339x    frame=  132 fps=4.2 q=36.0 size=       1kB time=00:00:01.08 bitrate=   5.4kbits/s speed=0.0342x    frame=  135 fps=4.1 q=36.0 size=       1kB time=00:00:01.14 bitrate=   5.2kbits/s speed=0.0345x    frame=  137 fps=4.0 q=36.0 size=       1kB time=00:00:01.18 bitrate=   5.0kbits/s speed=0.0348x    frame=  138 fps=4.0 q=35.0 size=       1kB time=00:00:01.20 bitrate=   4.9kbits/s speed=0.0345x    frame=  139 fps=3.9 q=35.0 size=       1kB time=00:00:01.22 bitrate=   4.8kbits/s speed=0.0339x    frame=  141 fps=3.8 q=35.0 size=       1kB time=00:00:01.26 bitrate=   4.7kbits/s speed=0.0343x    frame=  145 fps=3.7 q=35.0 size=       1kB time=00:00:01.34 bitrate=   4.4kbits/s speed=0.0347x    frame=  147 fps=3.7 q=35.0 size=       1kB time=00:00:01.38 bitrate=   4.3kbits/s speed=0.0351x    frame=  148 fps=3.6 q=35.0 size=       1kB time=00:00:01.40 bitrate=   4.2kbits/s speed=0.0343x    frame=  149 fps=3.6 q=35.0 size=       1kB time=00:00:01.42 bitrate=   4.1kbits/s speed=0.0344x    frame=  154 fps=3.5 q=35.0 size=       1kB time=00:00:01.52 bitrate=   3.9kbits/s speed=0.0347x    frame=  155 fps=3.5 q=35.0 size=       1kB time=00:00:01.54 bitrate=   3.8kbits/s speed=0.0346x    frame=  157 fps=3.4 q=35.0 size=       1kB time=00:00:01.58 bitrate=   3.7kbits/s speed=0.0346x    frame=  158 fps=3.4 q=35.0 size=       1kB time=00:00:01.60 bitrate=   3.7kbits/s speed=0.0345x    frame=  163 fps=3.3 q=35.0 size=       1kB time=00:00:01.70 bitrate=   3.5kbits/s speed=0.0346x    frame=  165 fps=3.3 q=35.0 size=       1kB time=00:00:01.74 bitrate=   3.4kbits/s speed=0.0348x    frame=  167 fps=3.2 q=35.0 size=       1kB time=00:00:01.78 bitrate=   3.3kbits/s speed=0.0346x    frame=  171 fps=3.3 q=35.0 size=       1kB time=00:00:01.86 bitrate=   3.2kbits/s speed=0.0357x    frame=  172 fps=3.2 q=35.0 size=       1kB time=00:00:01.88 bitrate=   3.1kbits/s speed=0.0351x    frame=  173 fps=3.2 q=34.0 size=       1kB time=00:00:01.90 bitrate=   3.1kbits/s speed=0.0347x    frame=  175 fps=3.1 q=34.0 size=       1kB time=00:00:01.94 bitrate=   3.0kbits/s speed=0.0346x    frame=  176 fps=3.1 q=34.0 size=       1kB time=00:00:01.96 bitrate=   3.0kbits/s speed=0.0346x    frame=  180 fps=3.1 q=34.0 size=       1kB time=00:00:02.04 bitrate=   2.9kbits/s speed=0.0355x    frame=  181 fps=3.1 q=34.0 size=       1kB time=00:00:02.06 bitrate=   2.9kbits/s speed=0.0348x    frame=  182 fps=3.0 q=34.0 size=       1kB time=00:00:02.08 bitrate=   2.8kbits/s speed=0.0348x    frame=  184 fps=3.0 q=34.0 size=       1kB time=00:00:02.12 bitrate=   2.8kbits/s speed=0.0346x    frame=  185 fps=3.0 q=34.0 size=       1kB time=00:00:02.14 bitrate=   2.8kbits/s speed=0.0346x    frame=  188 fps=3.0 q=34.0 size=       1kB time=00:00:02.20 bitrate=   2.7kbits/s speed=0.0349x    frame=  190 fps=3.0 q=34.0 size=       1kB time=00:00:02.24 bitrate=   2.6kbits/s speed=0.035x    frame=  191 fps=2.9 q=34.0 size=       1kB time=00:00:02.26 bitrate=   2.6kbits/s speed=0.0349x    frame=  192 fps=2.9 q=34.0 size=       1kB time=00:00:02.28 bitrate=   2.6kbits/s speed=0.0348x    frame=  193 fps=2.9 q=34.0 size=       1kB time=00:00:02.30 bitrate=   2.6kbits/s speed=0.0346x    frame=  194 fps=2.9 q=34.0 size=       1kB time=00:00:02.32 bitrate=   2.5kbits/s speed=0.0344x    frame=  196 fps=2.9 q=34.0 size=       1kB time=00:00:02.36 bitrate=   2.5kbits/s speed=0.0347x    frame=  199 fps=2.9 q=34.0 size=       1kB time=00:00:02.42 bitrate=   2.4kbits/s speed=0.0347x    frame=  201 fps=2.9 q=34.0 size=       1kB time=00:00:02.46 bitrate=   2.4kbits/s speed=0.035x    frame=  202 fps=2.8 q=34.0 size=       1kB time=00:00:02.48 bitrate=   2.4kbits/s speed=0.0345x    frame=  204 fps=2.8 q=34.0 size=       1kB time=00:00:02.52 bitrate=   2.3kbits/s speed=0.0346x    frame=  208 fps=2.8 q=34.0 size=       1kB time=00:00:02.60 bitrate=   2.3kbits/s speed=0.0347x    frame=  209 fps=2.7 q=34.0 size=       1kB time=00:00:02.62 bitrate=   2.2kbits/s speed=0.0343x    frame=  210 fps=2.7 q=34.0 size=       1kB time=00:00:02.64 bitrate=   2.2kbits/s speed=0.0343x    frame=  215 fps=2.7 q=34.0 size=       1kB time=00:00:02.74 bitrate=   2.1kbits/s speed=0.0343x    frame=  216 fps=2.7 q=34.0 size=       1kB time=00:00:02.76 bitrate=   2.1kbits/s speed=0.0343x    frame=  218 fps=2.7 q=34.0 size=       1kB time=00:00:02.80 bitrate=   2.1kbits/s speed=0.0345x    frame=  219 fps=2.7 q=34.0 size=       1kB time=00:00:02.82 bitrate=   2.1kbits/s speed=0.0344x    frame=  220 fps=2.7 q=34.0 size=       1kB time=00:00:02.84 bitrate=   2.1kbits/s speed=0.0345x    frame=  222 fps=2.7 q=34.0 size=       1kB time=00:00:02.88 bitrate=   2.0kbits/s speed=0.0344x    frame=  224 fps=2.6 q=34.0 size=       1kB time=00:00:02.92 bitrate=   2.0kbits/s speed=0.0344x    frame=  225 fps=2.6 q=34.0 size=       1kB time=00:00:02.94 bitrate=   2.0kbits/s speed=0.0344x    frame=  226 fps=2.6 q=34.0 size=       1kB time=00:00:02.96 bitrate=   2.0kbits/s speed=0.0344x    frame=  228 fps=2.6 q=34.0 size=       1kB time=00:00:03.00 bitrate=   2.0kbits/s speed=0.0343x    frame=  230 fps=2.6 q=34.0 size=       1kB time=00:00:03.04 bitrate=   1.9kbits/s speed=0.0344x    frame=  233 fps=2.6 q=34.0 size=       1kB time=00:00:03.10 bitrate=   1.9kbits/s speed=0.0344x    frame=  234 fps=2.6 q=34.0 size=       1kB time=00:00:03.12 bitrate=   1.9kbits/s speed=0.0342x    frame=  239 fps=2.6 q=34.0 size=       1kB time=00:00:03.22 bitrate=   1.8kbits/s speed=0.0344x    frame=  240 fps=2.5 q=34.0 size=       1kB time=00:00:03.24 bitrate=   1.8kbits/s speed=0.0343x    frame=  245 fps=2.6 q=34.0 size=       1kB time=00:00:03.34 bitrate=   1.8kbits/s speed=0.035x    frame=  246 fps=2.5 q=34.0 size=       1kB time=00:00:03.36 bitrate=   1.8kbits/s speed=0.0347x    frame=  247 fps=2.5 q=34.0 size=       1kB time=00:00:03.38 bitrate=   1.7kbits/s speed=0.0343x    frame=  249 fps=2.5 q=34.0 size=       1kB time=00:00:03.42 bitrate=   1.7kbits/s speed=0.0345x    frame=  252 fps=2.5 q=34.0 size=       1kB time=00:00:03.48 bitrate=   1.7kbits/s speed=0.0345x    frame=  254 fps=2.5 q=34.0 size=       1kB time=00:00:03.52 bitrate=   1.7kbits/s speed=0.0347x    frame=  257 fps=2.5 q=34.0 size=       1kB time=00:00:03.58 bitrate=   1.6kbits/s speed=0.0351x    frame=  258 fps=2.5 q=34.0 size=       1kB time=00:00:03.60 bitrate=   1.6kbits/s speed=0.0347x    frame=  260 fps=2.5 q=34.0 size=       1kB time=00:00:03.64 bitrate=   1.6kbits/s speed=0.0345x    frame=  262 fps=2.5 q=34.0 size=       1kB time=00:00:03.68 bitrate=   1.6kbits/s speed=0.0346x    frame=  266 fps=2.4 q=34.0 size=       1kB time=00:00:03.76 bitrate=   1.6kbits/s speed=0.0346x    frame=  269 fps=2.4 q=34.0 size=       1kB time=00:00:03.82 bitrate=   1.5kbits/s speed=0.0345x    frame=  271 fps=2.4 q=34.0 size=       1kB time=00:00:03.86 bitrate=   1.5kbits/s speed=0.0347x    frame=  275 fps=2.4 q=34.0 size=       1kB time=00:00:03.94 bitrate=   1.5kbits/s speed=0.0347x    frame=  276 fps=2.4 q=34.0 size=       1kB time=00:00:03.96 bitrate=   1.5kbits/s speed=0.0346x    frame=  278 fps=2.4 q=34.0 size=       1kB time=00:00:04.00 bitrate=   1.5kbits/s speed=0.0347x    frame=  279 fps=2.4 q=34.0 size=       1kB time=00:00:04.02 bitrate=   1.5kbits/s speed=0.0346x    frame=  282 fps=2.4 q=34.0 size=       1kB time=00:00:04.08 bitrate=   1.4kbits/s speed=0.0349x    frame=  284 fps=2.4 q=34.0 size=       1kB time=00:00:04.12 bitrate=   1.4kbits/s speed=0.0348x    frame=  285 fps=2.4 q=34.0 size=       1kB time=00:00:04.14 bitrate=   1.4kbits/s speed=0.0346x    frame=  287 fps=2.4 q=34.0 size=       1kB time=00:00:04.18 bitrate=   1.4kbits/s speed=0.0348x    frame=  289 fps=2.4 q=34.0 size=       1kB time=00:00:04.22 bitrate=   1.4kbits/s speed=0.0348x    frame=  291 fps=2.4 q=34.0 size=       1kB time=00:00:04.26 bitrate=   1.4kbits/s speed=0.0346x    frame=  293 fps=2.4 q=34.0 size=       1kB time=00:00:04.30 bitrate=   1.4kbits/s speed=0.0347x    frame=  295 fps=2.4 q=34.0 size=       1kB time=00:00:04.34 bitrate=   1.4kbits/s speed=0.0346x    frame=  296 fps=2.3 q=34.0 size=       1kB time=00:00:04.36 bitrate=   1.4kbits/s speed=0.0346x    frame=  299 fps=2.4 q=34.0 size=       1kB time=00:00:04.42 bitrate=   1.3kbits/s speed=0.0348x    frame=  301 fps=2.3 q=34.0 size=       1kB time=00:00:04.46 bitrate=   1.3kbits/s speed=0.0347x    frame=  303 fps=2.3 q=34.0 size=       1kB time=00:00:04.50 bitrate=   1.3kbits/s speed=0.0345x    frame=  305 fps=2.3 q=34.0 size=       1kB time=00:00:04.54 bitrate=   1.3kbits/s speed=0.0346x    frame=  309 fps=2.3 q=34.0 size=       1kB time=00:00:04.62 bitrate=   1.3kbits/s speed=0.0346x    frame=  310 fps=2.3 q=34.0 size=       1kB time=00:00:04.64 bitrate=   1.3kbits/s speed=0.0346x    frame=  311 fps=2.3 q=34.0 size=       1kB time=00:00:04.66 bitrate=   1.3kbits/s speed=0.0346x    frame=  313 fps=2.3 q=34.0 size=       1kB time=00:00:04.70 bitrate=   1.3kbits/s speed=0.0341x    frame=  318 fps=2.3 q=34.0 size=       1kB time=00:00:04.80 bitrate=   1.2kbits/s speed=0.0342x    frame=  320 fps=2.3 q=31.0 size=       1kB time=00:00:04.84 bitrate=   1.2kbits/s speed=0.0343x    frame=  324 fps=2.3 q=34.0 size=       1kB time=00:00:04.92 bitrate=   1.2kbits/s speed=0.0344x    frame=  326 fps=2.3 q=34.0 size=    5053kB time=00:00:04.96 bitrate=8344.0kbits/s speed=0.0344x    frame=  329 fps=2.3 q=34.0 size=    5053kB time=00:00:05.02 bitrate=8244.3kbits/s speed=0.0347x    frame=  332 fps=2.3 q=35.0 size=    5053kB time=00:00:05.08 bitrate=8146.9kbits/s speed=0.0349x    frame=  333 fps=2.3 q=35.0 size=    5053kB time=00:00:05.10 bitrate=8115.0kbits/s speed=0.0349x    frame=  336 fps=2.3 q=35.0 size=    5053kB time=00:00:05.16 bitrate=8020.7kbits/s speed=0.035x    frame=  339 fps=2.3 q=35.0 size=    5053kB time=00:00:05.22 bitrate=7928.5kbits/s speed=0.0353x    frame=  342 fps=2.3 q=35.0 size=    5053kB time=00:00:05.28 bitrate=7838.4kbits/s speed=0.0353x    frame=  345 fps=2.3 q=35.0 size=    5053kB time=00:00:05.34 bitrate=7750.3kbits/s speed=0.0354x    frame=  351 fps=2.3 q=35.0 size=    5053kB time=00:00:05.46 bitrate=7580.0kbits/s speed=0.0357x    frame=  354 fps=2.3 q=35.0 size=    5053kB time=00:00:05.52 bitrate=7497.7kbits/s speed=0.0359x    frame=  355 fps=2.3 q=35.0 size=    5053kB time=00:00:05.54 bitrate=7470.6kbits/s speed=0.0358x    frame=  357 fps=2.3 q=35.0 size=    5053kB time=00:00:05.58 bitrate=7417.1kbits/s speed=0.0359x    frame=  361 fps=2.3 q=35.0 size=    5053kB time=00:00:05.66 bitrate=7312.2kbits/s speed=0.036x    frame=  363 fps=2.3 q=35.0 size=    5053kB time=00:00:05.70 bitrate=7260.9kbits/s speed=0.0358x    frame=  365 fps=2.3 q=35.0 size=    5053kB time=00:00:05.74 bitrate=7210.3kbits/s speed=0.0359x    frame=  369 fps=2.3 q=35.0 size=    5053kB time=00:00:05.82 bitrate=7111.3kbits/s speed=0.0361x    frame=  371 fps=2.3 q=35.0 size=    5053kB time=00:00:05.86 bitrate=7062.7kbits/s speed=0.0362x    frame=  373 fps=2.3 q=35.0 size=    5053kB time=00:00:05.90 bitrate=7014.8kbits/s speed=0.0362x    frame=  374 fps=2.3 q=35.0 size=    5053kB time=00:00:05.92 bitrate=6991.2kbits/s speed=0.0361x    frame=  375 fps=2.3 q=35.0 size=    5053kB time=00:00:05.94 bitrate=6967.6kbits/s speed=0.036x    frame=  377 fps=2.3 q=35.0 size=    5053kB time=00:00:05.98 bitrate=6921.0kbits/s speed=0.036x    frame=  379 fps=2.3 q=35.0 size=    5053kB time=00:00:06.02 bitrate=6875.0kbits/s speed=0.036x    frame=  381 fps=2.3 q=35.0 size=    5053kB time=00:00:06.06 bitrate=6829.7kbits/s speed=0.036x    frame=  383 fps=2.3 q=35.0 size=    5053kB time=00:00:06.10 bitrate=6784.9kbits/s speed=0.036x    frame=  386 fps=2.3 q=35.0 size=    5053kB time=00:00:06.16 bitrate=6718.8kbits/s speed=0.0361x    frame=  387 fps=2.2 q=35.0 size=    5053kB time=00:00:06.18 bitrate=6697.1kbits/s speed=0.0359x    frame=  389 fps=2.2 q=35.0 size=    5053kB time=00:00:06.22 bitrate=6654.0kbits/s speed=0.0359x    frame=  391 fps=2.2 q=35.0 size=    5053kB time=00:00:06.26 bitrate=6611.5kbits/s speed=0.036x    frame=  393 fps=2.2 q=35.0 size=    5053kB time=00:00:06.30 bitrate=6569.5kbits/s speed=0.036x    frame=  395 fps=2.2 q=35.0 size=    5053kB time=00:00:06.34 bitrate=6528.1kbits/s speed=0.0358x    frame=  397 fps=2.2 q=35.0 size=    5053kB time=00:00:06.38 bitrate=6487.2kbits/s speed=0.0359x    frame=  399 fps=2.2 q=35.0 size=    5053kB time=00:00:06.42 bitrate=6446.8kbits/s speed=0.036x    frame=  400 fps=2.2 q=35.0 size=    5053kB time=00:00:06.44 bitrate=6426.7kbits/s speed=0.0359x    frame=  401 fps=2.2 q=35.0 size=    5053kB time=00:00:06.46 bitrate=6406.8kbits/s speed=0.0358x    frame=  406 fps=2.2 q=35.0 size=    5053kB time=00:00:06.56 bitrate=6309.2kbits/s speed=0.036x    frame=  407 fps=2.2 q=35.0 size=    5053kB time=00:00:06.58 bitrate=6290.0kbits/s speed=0.0358x    frame=  409 fps=2.2 q=35.0 size=    5053kB time=00:00:06.62 bitrate=6252.0kbits/s speed=0.0357x    frame=  410 fps=2.2 q=35.0 size=    5053kB time=00:00:06.64 bitrate=6233.2kbits/s speed=0.0357x    frame=  415 fps=2.2 q=35.0 size=    5053kB time=00:00:06.74 bitrate=6140.7kbits/s speed=0.0358x    frame=  416 fps=2.2 q=35.0 size=    5053kB time=00:00:06.76 bitrate=6122.6kbits/s speed=0.0357x    frame=  418 fps=2.2 q=35.0 size=    5053kB time=00:00:06.80 bitrate=6086.5kbits/s speed=0.0358x    frame=  419 fps=2.2 q=35.0 size=    5053kB time=00:00:06.82 bitrate=6068.7kbits/s speed=0.0357x    frame=  422 fps=2.2 q=35.0 size=    5053kB time=00:00:06.88 bitrate=6015.8kbits/s speed=0.0357x    frame=  425 fps=2.2 q=35.0 size=    5053kB time=00:00:06.94 bitrate=5963.8kbits/s speed=0.0357x    frame=  427 fps=2.2 q=35.0 size=    5053kB time=00:00:06.98 bitrate=5929.6kbits/s speed=0.0358x    frame=  428 fps=2.2 q=35.0 size=    5053kB time=00:00:07.00 bitrate=5912.7kbits/s speed=0.0356x    frame=  433 fps=2.2 q=35.0 size=    5053kB time=00:00:07.10 bitrate=5829.4kbits/s speed=0.036x    frame=  434 fps=2.2 q=35.0 size=    5053kB time=00:00:07.12 bitrate=5813.0kbits/s speed=0.0357x    frame=  436 fps=2.2 q=35.0 size=    5053kB time=00:00:07.16 bitrate=5780.6kbits/s speed=0.0356x    frame=  437 fps=2.2 q=35.0 size=    5053kB time=00:00:07.18 bitrate=5764.5kbits/s speed=0.0356x    frame=  440 fps=2.2 q=35.0 size=    5053kB time=00:00:07.24 bitrate=5716.7kbits/s speed=0.0358x    frame=  442 fps=2.2 q=35.0 size=    5053kB time=00:00:07.28 bitrate=5685.3kbits/s speed=0.0357x    frame=  443 fps=2.2 q=35.0 size=    5053kB time=00:00:07.30 bitrate=5669.7kbits/s speed=0.0355x    frame=  444 fps=2.2 q=35.0 size=    5053kB time=00:00:07.32 bitrate=5654.2kbits/s speed=0.0355x    frame=  445 fps=2.2 q=35.0 size=    5053kB time=00:00:07.34 bitrate=5638.8kbits/s speed=0.0355x    frame=  447 fps=2.2 q=35.0 size=    5053kB time=00:00:07.38 bitrate=5608.3kbits/s speed=0.0356x    frame=  449 fps=2.2 q=35.0 size=    5053kB time=00:00:07.42 bitrate=5578.0kbits/s speed=0.0356x    frame=  450 fps=2.2 q=35.0 size=    5053kB time=00:00:07.44 bitrate=5563.0kbits/s speed=0.0356x    frame=  451 fps=2.1 q=34.0 size=    5053kB time=00:00:07.46 bitrate=5548.1kbits/s speed=0.0356x    frame=  452 fps=2.1 q=35.0 size=    5053kB time=00:00:07.48 bitrate=5533.3kbits/s speed=0.0355x    frame=  454 fps=2.1 q=35.0 size=    5053kB time=00:00:07.52 bitrate=5503.9kbits/s speed=0.0355x    frame=  457 fps=2.1 q=35.0 size=    5053kB time=00:00:07.58 bitrate=5460.3kbits/s speed=0.0356x    frame=  458 fps=2.1 q=35.0 size=    5053kB time=00:00:07.60 bitrate=5445.9kbits/s speed=0.0355x    frame=  460 fps=2.1 q=35.0 size=    5053kB time=00:00:07.64 bitrate=5417.4kbits/s speed=0.0355x    frame=  463 fps=2.1 q=35.0 size=    5053kB time=00:00:07.70 bitrate=5375.2kbits/s speed=0.0354x    frame=  464 fps=2.1 q=35.0 size=    5053kB time=00:00:07.72 bitrate=5361.3kbits/s speed=0.0354x    frame=  466 fps=2.1 q=35.0 size=    5053kB time=00:00:07.76 bitrate=5333.7kbits/s speed=0.0355x    frame=  469 fps=2.1 q=35.0 size=    5053kB time=00:00:07.82 bitrate=5292.8kbits/s speed=0.0355x    frame=  470 fps=2.1 q=35.0 size=    5053kB time=00:00:07.84 bitrate=5279.3kbits/s speed=0.0355x    frame=  472 fps=2.1 q=35.0 size=    5053kB time=00:00:07.88 bitrate=5252.5kbits/s speed=0.0355x    frame=  473 fps=2.1 q=35.0 size=    5053kB time=00:00:07.90 bitrate=5239.2kbits/s speed=0.0354x    frame=  475 fps=2.1 q=35.0 size=    5053kB time=00:00:07.94 bitrate=5212.8kbits/s speed=0.0355x    frame=  478 fps=2.1 q=35.0 size=    5053kB time=00:00:08.00 bitrate=5173.7kbits/s speed=0.0355x    frame=  479 fps=2.1 q=35.0 size=    5053kB time=00:00:08.02 bitrate=5160.8kbits/s speed=0.0354x    frame=  480 fps=2.1 q=35.0 size=    5053kB time=00:00:08.04 bitrate=5147.9kbits/s speed=0.0354x    frame=  483 fps=2.1 q=34.0 size=    5053kB time=00:00:08.10 bitrate=5109.8kbits/s speed=0.0355x    frame=  485 fps=2.1 q=35.0 size=    5053kB time=00:00:08.14 bitrate=5084.7kbits/s speed=0.0354x    frame=  488 fps=2.1 q=34.0 size=    5053kB time=00:00:08.20 bitrate=5047.5kbits/s speed=0.0353x    frame=  490 fps=2.1 q=34.0 size=    5053kB time=00:00:08.24 bitrate=5023.0kbits/s speed=0.0354x    frame=  492 fps=2.1 q=34.0 size=    5053kB time=00:00:08.28 bitrate=4998.7kbits/s speed=0.0355x    frame=  494 fps=2.1 q=34.0 size=    5053kB time=00:00:08.32 bitrate=4974.7kbits/s speed=0.0354x    frame=  495 fps=2.1 q=34.0 size=    5053kB time=00:00:08.34 bitrate=4962.8kbits/s speed=0.0353x    frame=  497 fps=2.1 q=34.0 size=    5053kB time=00:00:08.38 bitrate=4939.1kbits/s speed=0.0354x    frame=  500 fps=2.1 q=34.0 size=    5053kB time=00:00:08.44 bitrate=4904.0kbits/s speed=0.0354x    frame=  500 fps=1.8 q=-1.0 Lsize=   10970kB time=00:00:09.94 bitrate=9040.2kbits/s speed=0.0357x    
video:10966kB audio:0kB subtitle:0kB other streams:0kB global headers:0kB muxing overhead: 0.040057%
bench: utime=1069.956s
bench: maxrss=3682388kB
[libx264 @ 0x4276120] frame I:3     Avg QP:30.65  size:488369
[libx264 @ 0x4276120] frame P:63    Avg QP:33.81  size: 62908
[libx264 @ 0x4276120] frame B:434   Avg QP:36.27  size: 13364
[libx264 @ 0x4276120] consecutive B-frames:  0.8%  0.0%  0.0%  1.6%  4.0%  3.6% 11.2% 17.6% 61.2%
[libx264 @ 0x4276120] mb I  I16..4: 20.4% 73.4%  6.2%
[libx264 @ 0x4276120] mb P  I16..4:  0.0%  0.2%  0.0%  P16..4: 41.1%  4.3%  8.4%  0.0%  0.0%    skip:46.0%
[libx264 @ 0x4276120] mb B  I16..4:  0.0%  0.0%  0.0%  B16..8: 44.6%  0.2%  0.0%  direct: 0.1%  skip:55.1%  L0:51.1% L1:48.8% BI: 0.1%
[libx264 @ 0x4276120] final ratefactor: 26.53
[libx264 @ 0x4276120] 8x8 transform intra:73.7% inter:68.4%
[libx264 @ 0x4276120] direct mvs  spatial:99.1% temporal:0.9%
[libx264 @ 0x4276120] coded y,uvDC,uvAC intra: 89.4% 68.9% 48.6% inter: 1.6% 1.2% 0.0%
[libx264 @ 0x4276120] i16 v,h,dc,p: 14% 24% 25% 38%
[libx264 @ 0x4276120] i8 v,h,dc,ddl,ddr,vr,hd,vl,hu:  5%  7%  1% 14% 19% 14% 19%  9% 12%
[libx264 @ 0x4276120] i4 v,h,dc,ddl,ddr,vr,hd,vl,hu:  3%  4%  1% 15% 18% 14% 20% 11% 15%
[libx264 @ 0x4276120] i8c dc,h,v,p: 41% 32% 15% 12%
[libx264 @ 0x4276120] Weighted P-Frames: Y:3.2% UV:1.6%
[libx264 @ 0x4276120] ref P L0: 58.4% 19.2% 12.0%  2.3%  2.2%  1.4%  1.6%  0.4%  0.4%  0.3%  0.4%  0.3%  0.3%  0.3%  0.3%  0.1%
[libx264 @ 0x4276120] ref B L0: 78.0%  7.1%  6.1%  1.6%  1.6%  1.5%  1.5%  0.4%  0.4%  0.4%  0.4%  0.4%  0.4%  0.3%  0.1%
[libx264 @ 0x4276120] ref B L1: 94.4%  5.6%
[libx264 @ 0x4276120] kb/s:8982.69
